<svg height="383.885948" viewBox="0 0 37.80125 56.063625" width="260.494036" xmlns="http://www.w3.org/2000/svg"><g fill="#2eab4a" transform="matrix(1.25 0 0 -1.25 -56.810201 115.69698)"><path d="m60.589161 68.724684 4.395 2.329.383.202.385-.205 9.500001-5.077.437-.233v-.489-11.458-.485l-.431-.234-9.500001-5.158-.388-.21-.386.204-4.43 2.347-4.311-2.341-.387-.21-.386.204-9.582 5.076-.44.233v.492 11.54.492l.44.233 9.582 5.077.382.202.385-.205zm-5.186-2.748 3.442 1.824-2.993 1.6-8.76-4.642v-10.554l8.756-4.639 2.97 1.612-3.415 1.809-.44.233v.492 11.54.492zm5.186.892-3.983-2.11v-10.554l3.941-2.088 3.984 2.163v10.483zm4.777 2.532-3.033-1.608 3.405-1.819.436-.233v-.489-11.458-.485l-.43-.234-3.46-1.878 3.079-1.631 8.682001 4.714v10.483z"/><path d="m60.207961 75.606584v-1.883c0-.135-.074-.246-.164-.246-.089 0-.163.111-.163.246v1.001c-.441 1.354-3.826 2.333-4.068 3.144l-.004-2.493c-.196-1.393 4.835-2.482 4.225-4.617l-6.164 3.528v14.897l1.961 1.024-.016-10.847c.262-1.395 4.53-2.767 4.419-3.634zm.892.158c-.025-.043-.039-.098-.039-.158v-1.883c0-.135.075-.246.168-.246.092 0 .167.111.167.246v.712l.032-.137c-.247 1.535 3.718 2.615 4.188 3.496v-2.419c.198-1.393-4.935-2.482-4.21-4.617l6.206001 3.528v14.941l-1.996001.958v-10.936c-.462-1.336-4.503-2.64-4.516-3.485m-.884 4.147c.011-.035.017-.074.017-.116v-1.986c0-.142-.073-.259-.162-.259-.091 0-.164.117-.164.259v.404l-.045-.246c.115 2.443-3.378 1.502-3.355 3.16v9.37l1.999.986v-9.504c-.046-1.255 1.54-1.278 1.724-1.995zm.878-.002c-.011-.034-.017-.073-.017-.114v-1.986c0-.142.075-.259.166-.259.092 0 .166.117.166.259v.399l.045-.241c-.117 2.443 3.438 1.502 3.414 3.16v9.37l-2.034.986v-9.504c.047-1.255-1.567-1.278-1.754-1.995zm-.365 12.648-1.393-.66v-7.719h.045c.00096-.03.007-.06.02-.09l-.023-.001c.104-.4 1.005-.272 1.222-1.202v-.039c0-.072.039-.131.087-.131s.088.059.088.131v.037c.206.879 1.033.816 1.215 1.139.039.05.064.103.069.156h.042v7.675z"/><path d="m71.905462 61.323684h.054zm-.76-1.826v1.41h-.601v-1.75c-.003-.07-.00096-.123.006-.162.008-.037.029-.056.065-.056.031 0 .069.022.112.066.094.095.205.22.33.379.02.025.048.063.088.113m2.121 1.41h-1.596v-.889c.051.05.092.087.123.113.111.082.211.123.302.123.058 0 .117-.017.176-.052s.115-.09.171-.166c.12-.158.21-.331.265-.52.043-.152.065-.318.065-.501 0-.108-.002-.188-.006-.242-.004-.053-.02-.148-.048-.284-.026-.135-.08-.319-.158-.553-.024-.076-.059-.174-.107-.293l-.43.53c.036.062.067.132.095.208.055.145.111.319.17.52.075.258.112.454.112.587 0 .119-.033.179-.1.179-.082 0-.202-.088-.359-.265l-.271-.302v-1.968l-.525.567v.852c-.04-.037-.072-.066-.1-.085-.094-.063-.186-.095-.277-.095-.078 0-.174.052-.286.156-.112.105-.217.241-.315.412-.063.113-.107.249-.13.406-.007.051-.014.124-.017.218v1.344h-.283l-.248.747h3.531zm-3.287 0h-.59v-1.817-.151c-.016-.234-.098-.366-.247-.397-.071-.012-.137-.019-.198-.019h-.132l-.312.653h.103.108c.044 0 .079.006.107.018.027.013.042.041.047.084.004.044.006.092.006.14v1.489h-.743v-1.921c.004-.101.014-.183.03-.246.047-.195.135-.378.265-.548.295-.36.589-.717.884-1.069.082-.107.14-.21.174-.308.033-.098.049-.197.049-.298 0-.151-.037-.299-.111-.444-.025-.045-.061-.102-.112-.171l-.454.578c.036.037.061.065.077.085.05.069.077.141.077.217 0 .069-.027.145-.077.227-.157.246-.438.564-.843.956-.196.189-.334.369-.413.539-.046.107-.07.234-.07.378v2.025h-.342l-.247001.747h2.717001zm-7.117001-.019h-.589v-3.775l-.525.568v3.207h-.342l-.248.747h.766c-.011.082-.019.148-.023.199-.043.303-.089.536-.136.699-.125.423-.292.635-.501.635-.051 0-.11-.012-.177-.034-.067-.021-.126-.086-.18-.194-.052-.107-.078-.242-.078-.407v-.103c0-.108.014-.221.044-.341.009-.038.023-.084.044-.142h-.201c-.024.07-.041.126-.053.171-.043.157-.071.302-.085.435s-.02.249-.02.35c0 .259.036.482.109.671.072.19.183.306.333.35.062.013.11.019.14.019.213 0 .398-.154.555-.463.122-.246.223-.577.306-.993.04-.202.078-.439.118-.71.004-.038.012-.085.024-.142h.471zm-1.208 0h-.59v-3.775l-.524.568v3.207h-.342l-.248.747h1.456zm-1.002 0h-.855v-1.268c.028-.025.049-.041.065-.047.067-.037.13-.057.189-.057.039 0 .068.003.088.01.122.037.234.11.336.218.032.03.07.084.118.16v-1.013c-.044-.018-.079-.031-.107-.037-.101-.032-.184-.048-.247-.048-.066 0-.117.007-.153.02-.094.031-.187.101-.277.208-.032.038-.071.094-.118.17 0-.013-.002-.022-.006-.028-.023-.063-.073-.13-.147-.199-.051-.057-.114-.114-.189-.171-.012-.006-.027-.015-.047-.027l.672-1.326-.236-.34-.848 1.731-.136.313c-.062.145-.094.293-.094.444 0 .189.055.303.165.341.07.025.136-.003.195-.085.019-.025.042-.07.07-.133.02.007.039.012.059.02.02.005.044.026.074.061.029.034.045.067.047.099.002.031.003.053.003.066v.918h-.825l-.247.747h2.197zm-6.815.52h-.052v-.095h.052zm.572-.511h-.855v-1.361c-.012-.064-.024-.114-.035-.152-.036-.114-.087-.218-.154-.312-.066-.095-.145-.171-.235-.228-.028-.012-.069-.031-.124-.056l.672-1.325-.236-.34-.849 1.731-.135.312c-.063.145-.094.294-.094.444 0 .19.055.303.165.342.07.024.135-.004.194-.086.02-.025.043-.069.071-.133.024 0 .051.002.08.005s.056.022.082.057c.025.035.046.077.062.128.004.019.009.044.017.075v.899h-.883l-.248.748h2.257zm-2.01 0h-.589v-3.774l-.524.567v3.207h-.343l-.247.748h1.456zm-1.208 0h-.589v-3.774l-.525.567v1.201c-.023.007-.047.011-.071.015-.023.003-.064.021-.123.052-.11.057-.191.107-.242.152-.007.005-.019.018-.035.038.016-.058.025-.106.03-.143.023-.139.035-.262.035-.369 0-.132-.014-.257-.042-.373-.027-.118-.076-.226-.147-.327-.071-.088-.147-.157-.23-.208s-.173-.076-.271-.076c-.09 0-.18.023-.27.071-.091.048-.184.122-.278.223-.184.214-.346.52-.483.917-.043.132-.096.316-.16.548l.231.171c.024-.113.043-.205.059-.274.055-.215.115-.378.182-.492.083-.145.169-.251.259-.317s.181-.099.272-.099c.102 0 .197.039.285.118.089.079.149.17.18.274.031.105.047.203.047.298 0 .12-.017.243-.053.37-.012.037-.029.088-.053.15l-.295-.226c-.078-.045-.161-.085-.247-.124-.016-.005-.036-.012-.059-.018l-.283.681.525.284c.102.057.184.129.247.218.063.087.094.176.094.264 0 .195-.123.294-.37.294-.127 0-.254-.048-.384-.143-.043-.031-.096-.079-.158-.141l-.266.738c.086.063.157.11.212.141.169.095.324.142.466.142.189 0 .356-.094.504-.283.147-.19.254-.43.321-.719.027-.114.041-.228.041-.341 0-.145-.024-.287-.071-.425-.015-.045-.039-.098-.071-.162.04-.037.071-.066.095-.085.078-.057.151-.086.218-.086.102 0 .193.042.271.124.023.025.053.066.088.123v1.031h-.341l-.248.748h1.455z"/></g></svg>